<?xml version="1.0" encoding="UTF-8" standalone="no"?>
<!DOCTYPE svg PUBLIC "-//W3C//DTD SVG 1.1//EN" "http://www.w3.org/Graphics/SVG/1.1/DTD/svg11.dtd">
<svg width="100%" height="100%" viewBox="0 0 1267 826" version="1.1" xmlns="http://www.w3.org/2000/svg" xmlns:xlink="http://www.w3.org/1999/xlink" xml:space="preserve" xmlns:serif="http://www.serif.com/" style="fill-rule:evenodd;clip-rule:evenodd;stroke-linecap:square;stroke-linejoin:round;stroke-miterlimit:1;">
    <g transform="matrix(1,0,0,1,-240.931,-226.378)">
        <g transform="matrix(1,0,0,1,325.049,-167.597)">
            <path d="M830.243,571.14L153.764,571.14L219.521,453.03L896,453.03L830.243,571.14Z" style="fill:rgb(0,174,239);"/>
        </g>
        <g transform="matrix(1,0,0,1,88.528,257.6)">
            <path d="M830.243,571.14L153.764,571.14L219.521,453.03L896,453.03L830.243,571.14Z" style="fill:rgb(0,174,239);"/>
        </g>
        <g transform="matrix(1,0,0,1,207.463,45.1297)">
            <path d="M512.75,571.012L152.986,571.012L219.46,452.902L578.508,452.902L512.75,571.012Z" style="fill:rgb(0,174,239);"/>
        </g>
        <g transform="matrix(1,0,0,1,810.998,45.1297)">
            <path d="M141.005,842.666L124.931,842.666L493.174,181.248L509.248,181.248L141.005,842.666Z" style="fill:rgb(255,0,0);"/>
        </g>
        <g transform="matrix(1,0,0,1,996.492,45.1599)">
            <path d="M141.005,842.666L124.931,842.666L493.174,181.248L509.248,181.248L141.005,842.666Z" style="fill:rgb(255,0,0);"/>
        </g>
        <g transform="matrix(2.74667,0,0,2.57501,371.247,531.431)">
            <text x="250.788px" y="110.384px" style="font-family:'OpenSans-Regular', 'Open Sans';font-size:50px;stroke:black;stroke-width:2.35px;">S</text>
        </g>
        <g transform="matrix(2.86112,0,0,2.57501,578.897,106.223)">
            <text x="250.788px" y="110.384px" style="font-family:'OpenSans-Regular', 'Open Sans';font-size:50px;stroke:black;stroke-width:2.3px;">S</text>
        </g>
        <g transform="matrix(2.86112,0,0,2.57501,447.431,318.833)">
            <text x="250.788px" y="110.384px" style="font-family:'OpenSans-Regular', 'Open Sans';font-size:50px;stroke:black;stroke-width:2.3px;">C</text>
        </g>
        <g transform="matrix(2.28736,0,0,1.72105,-518.605,-680.366)">
            <path d="M534.439,984.349C534.439,986.481 533.988,988.267 533.086,989.708C532.184,991.148 530.96,992.23 529.416,992.955C527.872,993.679 526.122,994.041 524.168,994.041C522.952,994.041 521.848,993.972 520.857,993.834C519.866,993.695 518.971,993.512 518.172,993.284C517.372,993.056 516.644,992.796 515.988,992.503L515.988,989.988C517.054,990.477 518.288,990.904 519.689,991.27C521.09,991.636 522.617,991.819 524.27,991.819C525.829,991.819 527.212,991.551 528.422,991.014C529.631,990.477 530.585,989.663 531.282,988.572C531.979,987.482 532.327,986.107 532.327,984.446C532.327,982.982 532.037,981.781 531.456,980.845C530.875,979.909 530.004,979.104 528.842,978.428C527.68,977.753 526.218,977.065 524.455,976.365C523.225,975.861 522.108,975.328 521.103,974.766C520.099,974.205 519.241,973.554 518.53,972.813C517.82,972.073 517.276,971.177 516.901,970.128C516.525,969.078 516.337,967.837 516.337,966.404C516.337,964.435 516.757,962.779 517.598,961.436C518.438,960.093 519.579,959.076 521.021,958.384C522.463,957.693 524.086,957.347 525.89,957.347C527.325,957.347 528.688,957.506 529.98,957.823C531.271,958.14 532.518,958.616 533.721,959.251L532.983,961.424C531.78,960.805 530.578,960.35 529.375,960.057C528.172,959.764 526.983,959.617 525.808,959.617C524.4,959.617 523.146,959.866 522.046,960.362C520.946,960.858 520.075,961.603 519.432,962.596C518.79,963.589 518.469,964.842 518.469,966.356C518.469,967.918 518.766,969.18 519.361,970.14C519.955,971.1 520.803,971.898 521.903,972.532C523.003,973.167 524.305,973.786 525.808,974.388C527.585,975.104 529.115,975.857 530.4,976.646C531.685,977.436 532.679,978.432 533.383,979.637C534.087,980.841 534.439,982.412 534.439,984.349Z" style="fill-rule:nonzero;stroke:black;stroke-width:1.34px;stroke-linecap:butt;stroke-miterlimit:2;"/>
            <path d="M563.426,966.502C565.572,966.502 567.266,967.243 568.51,968.724C569.754,970.205 570.376,972.541 570.376,975.731L570.376,993.553L568.346,993.553L568.346,975.828C568.346,973.371 567.875,971.564 566.932,970.408C565.989,969.253 564.745,968.675 563.201,968.675C561.082,968.675 559.425,969.411 558.229,970.884C557.033,972.357 556.435,974.673 556.435,977.83L556.435,993.553L554.385,993.553L554.385,975.828C554.385,974.184 554.17,972.838 553.74,971.788C553.309,970.738 552.711,969.957 551.946,969.444C551.181,968.931 550.279,968.675 549.24,968.675C547.86,968.675 546.664,969.013 545.652,969.688C544.641,970.364 543.862,971.405 543.315,972.813C542.769,974.221 542.495,976.007 542.495,978.172L542.495,993.553L540.425,993.553L540.425,967.015L542.106,967.015L542.413,971.361L542.536,971.361C542.905,970.498 543.397,969.7 544.012,968.968C544.627,968.236 545.389,967.641 546.298,967.186C547.207,966.73 548.276,966.502 549.506,966.502C551.105,966.502 552.462,966.929 553.576,967.784C554.69,968.638 555.465,969.904 555.902,971.58L556.046,971.58C556.647,969.985 557.58,968.74 558.844,967.845C560.108,966.95 561.636,966.502 563.426,966.502Z" style="fill-rule:nonzero;stroke:black;stroke-width:1.34px;stroke-linecap:butt;stroke-miterlimit:2;"/>
            <path d="M587.083,966.551C589.53,966.551 591.361,967.283 592.578,968.748C593.794,970.213 594.402,972.549 594.402,975.755L594.402,993.553L592.803,993.553L592.434,988.914L592.311,988.914C591.833,989.907 591.252,990.79 590.569,991.563C589.885,992.336 589.048,992.943 588.057,993.382C587.066,993.821 585.86,994.041 584.439,994.041C583.004,994.041 581.777,993.756 580.759,993.187C579.741,992.617 578.955,991.787 578.402,990.696C577.848,989.606 577.571,988.279 577.571,986.717C577.571,984.08 578.487,982.074 580.318,980.699C582.15,979.324 584.781,978.546 588.211,978.367L592.352,978.123L592.352,976.194C592.352,973.476 591.901,971.54 590.999,970.384C590.097,969.228 588.764,968.651 587.001,968.651C585.853,968.651 584.75,968.826 583.691,969.175C582.631,969.525 581.555,970.026 580.462,970.677L579.806,968.626C580.872,968.024 582.016,967.527 583.24,967.137C584.463,966.746 585.744,966.551 587.083,966.551ZM592.332,980.052L588.436,980.247C585.607,980.41 583.455,981.012 581.979,982.054C580.503,983.096 579.765,984.658 579.765,986.741C579.765,988.418 580.206,989.704 581.087,990.599C581.969,991.494 583.195,991.942 584.767,991.942C587.213,991.942 589.082,991.111 590.374,989.451C591.665,987.791 592.318,985.529 592.332,982.664L592.332,980.052Z" style="fill-rule:nonzero;stroke:black;stroke-width:1.34px;stroke-linecap:butt;stroke-miterlimit:2;"/>
            <path d="M611.499,966.551C612.087,966.551 612.641,966.592 613.16,966.673C613.679,966.754 614.164,966.868 614.615,967.015L614.287,969.285C613.836,969.139 613.379,969.029 612.914,968.956C612.449,968.882 611.95,968.846 611.417,968.846C610.365,968.846 609.425,969.082 608.599,969.554C607.772,970.026 607.071,970.701 606.497,971.58C605.923,972.459 605.486,973.517 605.185,974.754C604.885,975.991 604.734,977.375 604.734,978.904L604.734,993.553L602.643,993.553L602.643,967.015L604.427,967.015L604.632,972.02L604.755,972.02C605.096,970.994 605.578,970.071 606.2,969.249C606.822,968.427 607.577,967.772 608.465,967.283C609.354,966.795 610.365,966.551 611.499,966.551Z" style="fill-rule:nonzero;stroke:black;stroke-width:1.34px;stroke-linecap:butt;stroke-miterlimit:2;"/>
            <path d="M625.809,991.917C626.451,991.917 627.049,991.86 627.602,991.746C628.156,991.632 628.644,991.486 629.068,991.307L629.068,993.358C628.631,993.537 628.118,993.695 627.531,993.834C626.943,993.972 626.294,994.041 625.583,994.041C624.326,994.041 623.28,993.76 622.446,993.199C621.613,992.637 620.984,991.783 620.56,990.635C620.137,989.488 619.925,988.027 619.925,986.253L619.925,969.066L616.604,969.066L616.604,967.601L619.904,966.844L620.622,960.594L621.995,960.594L621.995,967.015L628.945,967.015L628.945,969.066L621.995,969.066L621.995,986.107C621.995,988.011 622.293,989.455 622.887,990.44C623.482,991.425 624.456,991.917 625.809,991.917Z" style="fill-rule:nonzero;stroke:black;stroke-width:1.34px;stroke-linecap:butt;stroke-miterlimit:2;"/>
            <path d="M658.917,959.617C657.003,959.617 655.295,960.004 653.791,960.777C652.288,961.55 651.017,962.645 649.978,964.061C648.94,965.477 648.147,967.165 647.6,969.127C647.054,971.088 646.78,973.249 646.78,975.609C646.78,978.864 647.211,981.708 648.072,984.141C648.933,986.575 650.228,988.458 651.957,989.793C653.686,991.128 655.842,991.795 658.425,991.795C659.928,991.795 661.295,991.661 662.525,991.392C663.755,991.124 664.896,990.778 665.948,990.355L665.948,992.552C664.95,992.991 663.826,993.349 662.576,993.626C661.325,993.903 659.873,994.041 658.22,994.041C655.227,994.041 652.715,993.276 650.686,991.746C648.656,990.216 647.129,988.068 646.104,985.301C645.079,982.534 644.566,979.303 644.566,975.609C644.566,972.956 644.888,970.518 645.53,968.297C646.172,966.075 647.112,964.146 648.349,962.51C649.585,960.875 651.092,959.605 652.869,958.702C654.646,957.798 656.668,957.347 658.937,957.347C660.372,957.347 661.742,957.514 663.047,957.847C664.353,958.181 665.579,958.665 666.727,959.3L665.907,961.497C664.8,960.846 663.666,960.37 662.504,960.069C661.342,959.768 660.147,959.617 658.917,959.617Z" style="fill-rule:nonzero;stroke:black;stroke-width:1.34px;stroke-linecap:butt;stroke-miterlimit:2;"/>
            <path d="M674.169,967.015L674.169,993.553L672.098,993.553L672.098,967.015L674.169,967.015ZM673.164,957.2C673.684,957.2 674.066,957.383 674.312,957.75C674.558,958.116 674.681,958.608 674.681,959.227C674.681,959.845 674.558,960.333 674.312,960.692C674.066,961.05 673.684,961.229 673.164,961.229C672.672,961.229 672.303,961.05 672.057,960.692C671.811,960.333 671.688,959.845 671.688,959.227C671.688,958.608 671.811,958.116 672.057,957.75C672.303,957.383 672.672,957.2 673.164,957.2Z" style="fill-rule:nonzero;stroke:black;stroke-width:1.34px;stroke-linecap:butt;stroke-miterlimit:2;"/>
            <path d="M688.724,991.917C689.366,991.917 689.964,991.86 690.518,991.746C691.071,991.632 691.56,991.486 691.984,991.307L691.984,993.358C691.546,993.537 691.034,993.695 690.446,993.834C689.858,993.972 689.209,994.041 688.499,994.041C687.241,994.041 686.196,993.76 685.362,993.199C684.528,992.637 683.9,991.783 683.476,990.635C683.052,989.488 682.84,988.027 682.84,986.253L682.84,969.066L679.519,969.066L679.519,967.601L682.82,966.844L683.537,960.594L684.911,960.594L684.911,967.015L691.861,967.015L691.861,969.066L684.911,969.066L684.911,986.107C684.911,988.011 685.208,989.455 685.803,990.44C686.397,991.425 687.371,991.917 688.724,991.917Z" style="fill-rule:nonzero;stroke:black;stroke-width:1.34px;stroke-linecap:butt;stroke-miterlimit:2;"/>
            <path d="M693.993,967.015L696.186,967.015L701.598,983.861C701.926,984.853 702.217,985.769 702.469,986.607C702.722,987.445 702.944,988.21 703.136,988.902C703.327,989.594 703.484,990.224 703.607,990.794L703.73,990.794C703.935,990.045 704.209,989.081 704.55,987.901C704.892,986.721 705.281,985.407 705.719,983.958L711.069,967.015L713.283,967.015L703.115,998.533C702.623,1000.06 702.083,1001.36 701.496,1002.43C700.908,1003.49 700.218,1004.3 699.425,1004.84C698.633,1005.39 697.676,1005.66 696.555,1005.66C696.049,1005.66 695.592,1005.62 695.182,1005.53C694.772,1005.44 694.375,1005.32 693.993,1005.17L693.993,1003.05C694.348,1003.18 694.714,1003.29 695.089,1003.38C695.465,1003.47 695.879,1003.51 696.33,1003.51C697.109,1003.51 697.782,1003.32 698.349,1002.94C698.916,1002.56 699.425,1001.97 699.876,1001.17C700.327,1000.37 700.751,999.355 701.147,998.118L702.664,993.406L693.993,967.015Z" style="fill-rule:nonzero;stroke:black;stroke-width:1.34px;stroke-linecap:butt;stroke-miterlimit:2;"/>
            <path d="M746.637,984.349C746.637,986.481 746.186,988.267 745.284,989.708C744.382,991.148 743.159,992.23 741.615,992.955C740.07,993.679 738.321,994.041 736.367,994.041C735.15,994.041 734.047,993.972 733.056,993.834C732.065,993.695 731.17,993.512 730.37,993.284C729.571,993.056 728.843,992.796 728.187,992.503L728.187,989.988C729.253,990.477 730.487,990.904 731.887,991.27C733.288,991.636 734.816,991.819 736.469,991.819C738.027,991.819 739.411,991.551 740.621,991.014C741.83,990.477 742.783,989.663 743.48,988.572C744.177,987.482 744.526,986.107 744.526,984.446C744.526,982.982 744.235,981.781 743.655,980.845C743.074,979.909 742.203,979.104 741.041,978.428C739.879,977.753 738.417,977.065 736.654,976.365C735.424,975.861 734.306,975.328 733.302,974.766C732.297,974.205 731.44,973.554 730.729,972.813C730.018,972.073 729.475,971.177 729.099,970.128C728.724,969.078 728.536,967.837 728.536,966.404C728.536,964.435 728.956,962.779 729.796,961.436C730.637,960.093 731.778,959.076 733.22,958.384C734.662,957.693 736.285,957.347 738.089,957.347C739.524,957.347 740.887,957.506 742.179,957.823C743.47,958.14 744.717,958.616 745.92,959.251L745.182,961.424C743.979,960.805 742.777,960.35 741.574,960.057C740.371,959.764 739.182,959.617 738.007,959.617C736.599,959.617 735.345,959.866 734.245,960.362C733.145,960.858 732.274,961.603 731.631,962.596C730.989,963.589 730.668,964.842 730.668,966.356C730.668,967.918 730.965,969.18 731.559,970.14C732.154,971.1 733.001,971.898 734.101,972.532C735.202,973.167 736.503,973.786 738.007,974.388C739.783,975.104 741.314,975.857 742.599,976.646C743.884,977.436 744.878,978.432 745.582,979.637C746.285,980.841 746.637,982.412 746.637,984.349Z" style="fill-rule:nonzero;stroke:black;stroke-width:1.34px;stroke-linecap:butt;stroke-miterlimit:2;"/>
            <path d="M748.954,967.015L751.147,967.015L756.56,983.861C756.888,984.853 757.178,985.769 757.431,986.607C757.684,987.445 757.906,988.21 758.097,988.902C758.288,989.594 758.446,990.224 758.569,990.794L758.692,990.794C758.897,990.045 759.17,989.081 759.512,987.901C759.853,986.721 760.243,985.407 760.68,983.958L766.031,967.015L768.245,967.015L758.077,998.533C757.585,1000.06 757.045,1001.36 756.457,1002.43C755.869,1003.49 755.179,1004.3 754.387,1004.84C753.594,1005.39 752.637,1005.66 751.516,1005.66C751.011,1005.66 750.553,1005.62 750.143,1005.53C749.733,1005.44 749.337,1005.32 748.954,1005.17L748.954,1003.05C749.309,1003.18 749.675,1003.29 750.051,1003.38C750.427,1003.47 750.84,1003.51 751.291,1003.51C752.07,1003.51 752.743,1003.32 753.31,1002.94C753.877,1002.56 754.387,1001.97 754.838,1001.17C755.289,1000.37 755.712,999.355 756.109,998.118L757.626,993.406L748.954,967.015Z" style="fill-rule:nonzero;stroke:black;stroke-width:1.34px;stroke-linecap:butt;stroke-miterlimit:2;"/>
            <path d="M787.597,986.595C787.597,988.174 787.266,989.52 786.603,990.635C785.94,991.75 784.973,992.597 783.702,993.174C782.431,993.752 780.866,994.041 779.007,994.041C777.463,994.041 776.083,993.878 774.866,993.553C773.65,993.227 772.632,992.829 771.812,992.357L771.812,989.915C772.837,990.517 773.971,991.006 775.215,991.38C776.459,991.754 777.736,991.942 779.048,991.942C781.344,991.942 782.998,991.478 784.009,990.55C785.021,989.622 785.527,988.353 785.527,986.741C785.527,985.683 785.277,984.809 784.778,984.117C784.279,983.425 783.565,982.827 782.636,982.322C781.707,981.818 780.586,981.305 779.274,980.784C777.907,980.231 776.694,979.682 775.635,979.136C774.576,978.591 773.746,977.867 773.144,976.964C772.543,976.06 772.242,974.827 772.242,973.265C772.242,971.133 772.96,969.472 774.395,968.284C775.83,967.096 777.757,966.502 780.176,966.502C781.515,966.502 782.762,966.653 783.917,966.954C785.072,967.255 786.121,967.641 787.064,968.113L786.326,970.213C785.479,969.741 784.501,969.359 783.394,969.066C782.287,968.773 781.18,968.626 780.073,968.626C778.256,968.626 776.834,969.009 775.809,969.774C774.784,970.539 774.272,971.662 774.272,973.143C774.272,974.282 774.518,975.173 775.01,975.816C775.502,976.459 776.206,976.996 777.121,977.427C778.037,977.859 779.124,978.335 780.381,978.856C781.679,979.393 782.879,979.954 783.979,980.54C785.079,981.126 785.957,981.883 786.613,982.811C787.269,983.738 787.597,985 787.597,986.595Z" style="fill-rule:nonzero;stroke:black;stroke-width:1.34px;stroke-linecap:butt;stroke-miterlimit:2;"/>
            <path d="M799.692,991.917C800.335,991.917 800.933,991.86 801.486,991.746C802.04,991.632 802.528,991.486 802.952,991.307L802.952,993.358C802.514,993.537 802.002,993.695 801.414,993.834C800.827,993.972 800.177,994.041 799.467,994.041C798.209,994.041 797.164,993.76 796.33,993.199C795.497,992.637 794.868,991.783 794.444,990.635C794.02,989.488 793.809,988.027 793.809,986.253L793.809,969.066L790.488,969.066L790.488,967.601L793.788,966.844L794.506,960.594L795.879,960.594L795.879,967.015L802.829,967.015L802.829,969.066L795.879,969.066L795.879,986.107C795.879,988.011 796.176,989.455 796.771,990.44C797.365,991.425 798.339,991.917 799.692,991.917Z" style="fill-rule:nonzero;stroke:black;stroke-width:1.34px;stroke-linecap:butt;stroke-miterlimit:2;"/>
            <path d="M817.077,966.502C818.976,966.502 820.558,967.031 821.822,968.089C823.087,969.147 824.03,970.596 824.651,972.435C825.273,974.274 825.584,976.382 825.584,978.758L825.584,980.54L809.491,980.54C809.491,984.186 810.199,986.986 811.613,988.939C813.028,990.892 815.054,991.868 817.692,991.868C819.072,991.868 820.271,991.734 821.289,991.465C822.307,991.197 823.438,990.737 824.682,990.086L824.682,992.357C823.589,992.943 822.495,993.37 821.402,993.638C820.309,993.907 819.051,994.041 817.63,994.041C815.375,994.041 813.486,993.484 811.962,992.369C810.438,991.254 809.29,989.679 808.518,987.645C807.745,985.61 807.359,983.234 807.359,980.516C807.359,977.863 807.732,975.478 808.477,973.362C809.221,971.247 810.315,969.574 811.757,968.345C813.199,967.117 814.972,966.502 817.077,966.502ZM817.056,968.626C814.924,968.626 813.199,969.468 811.88,971.153C810.561,972.838 809.785,975.267 809.553,978.441L823.432,978.441C823.432,976.504 823.199,974.795 822.735,973.314C822.27,971.833 821.569,970.681 820.633,969.859C819.697,969.037 818.505,968.626 817.056,968.626Z" style="fill-rule:nonzero;stroke:black;stroke-width:1.34px;stroke-linecap:butt;stroke-miterlimit:2;"/>
            <path d="M855.207,966.502C857.353,966.502 859.047,967.243 860.291,968.724C861.535,970.205 862.157,972.541 862.157,975.731L862.157,993.553L860.127,993.553L860.127,975.828C860.127,973.371 859.656,971.564 858.713,970.408C857.77,969.253 856.526,968.675 854.982,968.675C852.863,968.675 851.206,969.411 850.01,970.884C848.814,972.357 848.216,974.673 848.216,977.83L848.216,993.553L846.166,993.553L846.166,975.828C846.166,974.184 845.951,972.838 845.521,971.788C845.09,970.738 844.492,969.957 843.727,969.444C842.962,968.931 842.06,968.675 841.021,968.675C839.641,968.675 838.445,969.013 837.433,969.688C836.422,970.364 835.643,971.405 835.096,972.813C834.55,974.221 834.276,976.007 834.276,978.172L834.276,993.553L832.206,993.553L832.206,967.015L833.887,967.015L834.194,971.361L834.317,971.361C834.686,970.498 835.178,969.7 835.793,968.968C836.408,968.236 837.17,967.641 838.079,967.186C838.988,966.73 840.057,966.502 841.287,966.502C842.886,966.502 844.243,966.929 845.357,967.784C846.471,968.638 847.246,969.904 847.683,971.58L847.827,971.58C848.428,969.985 849.361,968.74 850.625,967.845C851.889,966.95 853.417,966.502 855.207,966.502Z" style="fill-rule:nonzero;stroke:black;stroke-width:1.34px;stroke-linecap:butt;stroke-miterlimit:2;"/>
            <path d="M885.015,986.595C885.015,988.174 884.683,989.52 884.02,990.635C883.357,991.75 882.391,992.597 881.119,993.174C879.848,993.752 878.284,994.041 876.425,994.041C874.881,994.041 873.5,993.878 872.284,993.553C871.068,993.227 870.049,992.829 869.229,992.357L869.229,989.915C870.254,990.517 871.389,991.006 872.632,991.38C873.876,991.754 875.154,991.942 876.466,991.942C878.762,991.942 880.416,991.478 881.427,990.55C882.438,989.622 882.944,988.353 882.944,986.741C882.944,985.683 882.695,984.809 882.196,984.117C881.697,983.425 880.983,982.827 880.053,982.322C879.124,981.818 878.003,981.305 876.691,980.784C875.325,980.231 874.112,979.682 873.053,979.136C871.993,978.591 871.163,977.867 870.562,976.964C869.96,976.06 869.66,974.827 869.66,973.265C869.66,971.133 870.377,969.472 871.812,968.284C873.247,967.096 875.174,966.502 877.593,966.502C878.933,966.502 880.18,966.653 881.335,966.954C882.49,967.255 883.539,967.641 884.482,968.113L883.744,970.213C882.896,969.741 881.919,969.359 880.812,969.066C879.705,968.773 878.598,968.626 877.491,968.626C875.673,968.626 874.252,969.009 873.227,969.774C872.202,970.539 871.689,971.662 871.689,973.143C871.689,974.282 871.935,975.173 872.427,975.816C872.919,976.459 873.623,976.996 874.539,977.427C875.455,977.859 876.541,978.335 877.798,978.856C879.097,979.393 880.296,979.954 881.396,980.54C882.496,981.126 883.375,981.883 884.031,982.811C884.687,983.738 885.015,985 885.015,986.595Z" style="fill-rule:nonzero;stroke:black;stroke-width:1.34px;stroke-linecap:butt;stroke-miterlimit:2;"/>
        </g>
        <g transform="matrix(2.28736,0,0,1.72105,-518.605,-680.366)">
            <path d="M349.033,993.553L332.653,993.553L332.653,957.86L349.033,957.86L349.033,960.13L334.765,960.13L334.765,973.655L348.233,973.655L348.233,975.926L334.765,975.926L334.765,991.282L349.033,991.282L349.033,993.553Z" style="fill:rgb(0,174,239);fill-rule:nonzero;stroke:rgb(0,174,239);stroke-width:1.34px;stroke-linecap:butt;stroke-miterlimit:2;"/>
            <rect x="355.47" y="955.565" width="2.091" height="37.988" style="fill:rgb(0,174,239);fill-rule:nonzero;stroke:rgb(0,174,239);stroke-width:1.34px;stroke-linecap:butt;stroke-miterlimit:2;"/>
            <path d="M374.494,966.502C376.394,966.502 377.976,967.031 379.24,968.089C380.504,969.147 381.447,970.596 382.069,972.435C382.691,974.274 383.002,976.382 383.002,978.758L383.002,980.54L366.909,980.54C366.909,984.186 367.616,986.986 369.031,988.939C370.445,990.892 372.472,991.868 375.109,991.868C376.49,991.868 377.689,991.734 378.707,991.465C379.725,991.197 380.856,990.737 382.1,990.086L382.1,992.357C381.007,992.943 379.913,993.37 378.82,993.638C377.727,993.907 376.469,994.041 375.048,994.041C372.793,994.041 370.903,993.484 369.379,992.369C367.856,991.254 366.708,989.679 365.935,987.645C365.163,985.61 364.777,983.234 364.777,980.516C364.777,977.863 365.15,975.478 365.894,973.362C366.639,971.247 367.733,969.574 369.174,968.345C370.616,967.117 372.39,966.502 374.494,966.502ZM374.474,968.626C372.342,968.626 370.616,969.468 369.297,971.153C367.979,972.838 367.203,975.267 366.971,978.441L380.849,978.441C380.849,976.504 380.617,974.795 380.152,973.314C379.688,971.833 378.987,970.681 378.051,969.859C377.115,969.037 375.922,968.626 374.474,968.626Z" style="fill:rgb(0,174,239);fill-rule:nonzero;stroke:rgb(0,174,239);stroke-width:1.34px;stroke-linecap:butt;stroke-miterlimit:2;"/>
            <path d="M398.562,994.041C396.348,994.041 394.479,993.492 392.955,992.393C391.431,991.295 390.283,989.724 389.511,987.681C388.739,985.639 388.353,983.218 388.353,980.418C388.353,977.505 388.797,975.01 389.685,972.935C390.573,970.86 391.824,969.269 393.437,968.162C395.049,967.055 396.942,966.502 399.115,966.502C400.181,966.502 401.172,966.616 402.088,966.844C403.003,967.072 403.83,967.389 404.568,967.796L404.015,969.969C403.249,969.562 402.436,969.253 401.575,969.041C400.714,968.83 399.887,968.724 399.095,968.724C397.263,968.724 395.709,969.2 394.431,970.152C393.153,971.104 392.176,972.455 391.499,974.205C390.823,975.954 390.485,978.017 390.485,980.394C390.485,982.624 390.772,984.597 391.346,986.314C391.92,988.031 392.801,989.382 393.99,990.367C395.179,991.352 396.703,991.844 398.562,991.844C399.641,991.844 400.67,991.714 401.647,991.453C402.624,991.193 403.516,990.859 404.322,990.452L404.322,992.698C403.598,993.089 402.761,993.41 401.811,993.663C400.861,993.915 399.778,994.041 398.562,994.041Z" style="fill:rgb(0,174,239);fill-rule:nonzero;stroke:rgb(0,174,239);stroke-width:1.34px;stroke-linecap:butt;stroke-miterlimit:2;"/>
            <path d="M415.761,991.917C416.404,991.917 417.002,991.86 417.555,991.746C418.109,991.632 418.597,991.486 419.021,991.307L419.021,993.358C418.584,993.537 418.071,993.695 417.483,993.834C416.896,993.972 416.247,994.041 415.536,994.041C414.279,994.041 413.233,993.76 412.399,993.199C411.566,992.637 410.937,991.783 410.513,990.635C410.09,989.488 409.878,988.027 409.878,986.253L409.878,969.066L406.557,969.066L406.557,967.601L409.857,966.844L410.575,960.594L411.948,960.594L411.948,967.015L418.898,967.015L418.898,969.066L411.948,969.066L411.948,986.107C411.948,988.011 412.246,989.455 412.84,990.44C413.435,991.425 414.408,991.917 415.761,991.917Z" style="fill:rgb(0,174,239);fill-rule:nonzero;stroke:rgb(0,174,239);stroke-width:1.34px;stroke-linecap:butt;stroke-miterlimit:2;"/>
            <path d="M433.576,966.551C434.164,966.551 434.717,966.592 435.237,966.673C435.756,966.754 436.241,966.868 436.692,967.015L436.364,969.285C435.913,969.139 435.455,969.029 434.991,968.956C434.526,968.882 434.027,968.846 433.494,968.846C432.442,968.846 431.502,969.082 430.675,969.554C429.849,970.026 429.148,970.701 428.574,971.58C428,972.459 427.563,973.517 427.262,974.754C426.961,975.991 426.811,977.375 426.811,978.904L426.811,993.553L424.72,993.553L424.72,967.015L426.504,967.015L426.709,972.02L426.832,972.02C427.173,970.994 427.655,970.071 428.277,969.249C428.899,968.427 429.654,967.772 430.542,967.283C431.431,966.795 432.442,966.551 433.576,966.551Z" style="fill:rgb(0,174,239);fill-rule:nonzero;stroke:rgb(0,174,239);stroke-width:1.34px;stroke-linecap:butt;stroke-miterlimit:2;"/>
            <path d="M443.929,967.015L443.929,993.553L441.858,993.553L441.858,967.015L443.929,967.015ZM442.924,957.2C443.444,957.2 443.826,957.383 444.072,957.75C444.318,958.116 444.441,958.608 444.441,959.227C444.441,959.845 444.318,960.333 444.072,960.692C443.826,961.05 443.444,961.229 442.924,961.229C442.432,961.229 442.063,961.05 441.817,960.692C441.571,960.333 441.448,959.845 441.448,959.227C441.448,958.608 441.571,958.116 441.817,957.75C442.063,957.383 442.432,957.2 442.924,957.2Z" style="fill:rgb(0,174,239);fill-rule:nonzero;stroke:rgb(0,174,239);stroke-width:1.34px;stroke-linecap:butt;stroke-miterlimit:2;"/>
            <path d="M461.395,994.041C459.181,994.041 457.312,993.492 455.788,992.393C454.264,991.295 453.116,989.724 452.344,987.681C451.572,985.639 451.186,983.218 451.186,980.418C451.186,977.505 451.63,975.01 452.519,972.935C453.407,970.86 454.657,969.269 456.27,968.162C457.883,967.055 459.776,966.502 461.949,966.502C463.015,966.502 464.006,966.616 464.921,966.844C465.837,967.072 466.664,967.389 467.402,967.796L466.848,969.969C466.083,969.562 465.27,969.253 464.409,969.041C463.548,968.83 462.721,968.724 461.928,968.724C460.097,968.724 458.542,969.2 457.264,970.152C455.986,971.104 455.009,972.455 454.333,974.205C453.656,975.954 453.318,978.017 453.318,980.394C453.318,982.624 453.605,984.597 454.179,986.314C454.753,988.031 455.635,989.382 456.824,990.367C458.013,991.352 459.536,991.844 461.395,991.844C462.475,991.844 463.503,991.714 464.48,991.453C465.458,991.193 466.349,990.859 467.156,990.452L467.156,992.698C466.431,993.089 465.594,993.41 464.644,993.663C463.695,993.915 462.611,994.041 461.395,994.041Z" style="fill:rgb(0,174,239);fill-rule:nonzero;stroke:rgb(0,174,239);stroke-width:1.34px;stroke-linecap:butt;stroke-miterlimit:2;"/>
            <path d="M480.358,966.551C482.804,966.551 484.636,967.283 485.852,968.748C487.068,970.213 487.677,972.549 487.677,975.755L487.677,993.553L486.078,993.553L485.709,988.914L485.586,988.914C485.107,989.907 484.526,990.79 483.843,991.563C483.16,992.336 482.323,992.943 481.332,993.382C480.341,993.821 479.135,994.041 477.713,994.041C476.278,994.041 475.052,993.756 474.034,993.187C473.015,992.617 472.23,991.787 471.676,990.696C471.123,989.606 470.846,988.279 470.846,986.717C470.846,984.08 471.761,982.074 473.593,980.699C475.424,979.324 478.055,978.546 481.485,978.367L485.627,978.123L485.627,976.194C485.627,973.476 485.176,971.54 484.273,970.384C483.371,969.228 482.039,968.651 480.276,968.651C479.128,968.651 478.024,968.826 476.965,969.175C475.906,969.525 474.83,970.026 473.736,970.677L473.08,968.626C474.146,968.024 475.291,967.527 476.514,967.137C477.737,966.746 479.019,966.551 480.358,966.551ZM485.606,980.052L481.711,980.247C478.882,980.41 476.729,981.012 475.253,982.054C473.777,983.096 473.039,984.658 473.039,986.741C473.039,988.418 473.48,989.704 474.362,990.599C475.243,991.494 476.47,991.942 478.041,991.942C480.488,991.942 482.357,991.111 483.648,989.451C484.94,987.791 485.592,985.529 485.606,982.664L485.606,980.052Z" style="fill:rgb(0,174,239);fill-rule:nonzero;stroke:rgb(0,174,239);stroke-width:1.34px;stroke-linecap:butt;stroke-miterlimit:2;"/>
            <rect x="495.918" y="955.565" width="2.091" height="37.988" style="fill:rgb(0,174,239);fill-rule:nonzero;stroke:rgb(0,174,239);stroke-width:1.34px;stroke-linecap:butt;stroke-miterlimit:2;"/>
        </g>
    </g>
</svg>
